<?xml version="1.0" encoding="utf-8"?>
<!-- Generated by IcoMoon.io -->
<!DOCTYPE svg PUBLIC "-//W3C//DTD SVG 1.1//EN" "http://www.w3.org/Graphics/SVG/1.1/DTD/svg11.dtd">
<svg version="1.1" xmlns="http://www.w3.org/2000/svg" xmlns:xlink="http://www.w3.org/1999/xlink" width="512" height="512" viewBox="0 0 512 512"><g id="icomoon-ignore">
</g>
<path d="M481 284.125v-28.125h-84.942c-2.576-31.942-13.969-61.096-31.496-84.484h71.166l30.788-123.153-27.286-6.821-25.462 101.847h-76.764c-0.392-0.305-0.789-0.603-1.185-0.904 2.949-8.57 4.553-17.763 4.553-27.332 0.001-46.477-37.774-84.154-84.374-84.154s-84.375 37.678-84.375 84.155c0 9.567 1.604 18.761 4.554 27.332-0.395 0.3-0.792 0.599-1.185 0.904h-76.764l-25.462-101.847-27.285 6.821 30.788 123.153h71.167c-17.527 23.388-28.918 52.541-31.495 84.483h-84.942v28.125h84.977c1.671 20.067 6.815 39.029 14.783 56.14h-54.489l-30.788 123.151 27.285 6.822 25.462-101.849h49.374c25.792 34.291 64.774 56.14 108.395 56.14s82.602-21.849 108.397-56.14h49.375l25.462 101.849 27.286-6.822-30.788-123.151h-54.488c7.967-17.111 13.111-36.073 14.781-56.14h84.977z"></path>
</svg>
